HIERARCHY
ROOT Hips
{
  OFFSET 263.056 91.6644 -274.608
  CHANNELS 6 Xposition Yposition Zposition Zrotation Xrotation Yrotation
  JOINT LeftUpLeg
  {
    OFFSET 8.64259 1.95398 -2.38835
    CHANNELS 3 Zrotation Xrotation Yrotation
    JOINT LeftLeg
    {
      OFFSET 43.7702 0 0
      CHANNELS 3 Zrotation Xrotation Yrotation
      JOINT LeftFoot
      {
        OFFSET 40.6238 0 0
        CHANNELS 3 Zrotation Xrotation Yrotation
        JOINT LeftToeBase
        {
          OFFSET 12.7242 0 0
          CHANNELS 3 Zrotation Xrotation Yrotation
          End Site
          {
            OFFSET 0 0 0
          }
        }
      }
    }
  }
  JOINT RightUpLeg
  {
    OFFSET -8.2249 1.95398 -2.59336
    CHANNELS 3 Zrotation Xrotation Yrotation
    JOINT RightLeg
    {
      OFFSET 43.5653 0 0
      CHANNELS 3 Zrotation Xrotation Yrotation
      JOINT RightFoot
      {
        OFFSET 40.6238 0 0
        CHANNELS 3 Zrotation Xrotation Yrotation
        JOINT RightToeBase
        {
          OFFSET 12.7242 0 0
          CHANNELS 3 Zrotation Xrotation Yrotation
          End Site
          {
            OFFSET 0 0 0
          }
        }
      }
    }
  }
  JOINT Spine
  {
    OFFSET 0.165834 0.87714 6.61349
    CHANNELS 3 Zrotation Xrotation Yrotation
    JOINT Spine1
    {
      OFFSET 7.38963 1.71661e-005 0
      CHANNELS 3 Zrotation Xrotation Yrotation
      JOINT Spine2
      {
        OFFSET 11.9445 1.14441e-005 0
        CHANNELS 3 Zrotation Xrotation Yrotation
        JOINT Spine3
        {
          OFFSET 14.7254 4.19617e-005 0
          CHANNELS 3 Zrotation Xrotation Yrotation
          JOINT Spine4
          {
            OFFSET 10.9679 0 0
            CHANNELS 3 Zrotation Xrotation Yrotation
            JOINT RightShoulder
            {
              OFFSET 2.46616 -1.6653 3.69651
              CHANNELS 3 Zrotation Xrotation Yrotation
              JOINT RightArm
              {
                OFFSET 13.0012 0 0
                CHANNELS 3 Zrotation Xrotation Yrotation
                JOINT RightForeArm
                {
                  OFFSET 28.7848 1.52588e-005 0
                  CHANNELS 3 Zrotation Xrotation Yrotation
                  JOINT RightHand
                  {
                    OFFSET 26.5688 1.52588e-005 0
                    CHANNELS 3 Zrotation Xrotation Yrotation
                    End Site
                    {
                      OFFSET 0 0 0
                    }
                  }
                }
              }
            }
            JOINT LeftShoulder
            {
              OFFSET 2.38034 -1.29275 -3.7523
              CHANNELS 3 Zrotation Xrotation Yrotation
              JOINT LeftArm
              {
                OFFSET 16.3182 6.10352e-005 0
                CHANNELS 3 Zrotation Xrotation Yrotation
                JOINT LeftForeArm
                {
                  OFFSET 27.0901 0 0
                  CHANNELS 3 Zrotation Xrotation Yrotation
                  JOINT LeftHand
                  {
                    OFFSET 24.5451 1.52588e-005 0
                    CHANNELS 3 Zrotation Xrotation Yrotation
                    End Site
                    {
                      OFFSET 0 0 0
                    }
                  }
                }
              }
            }
            JOINT Neck
            {
              OFFSET 5.0226 -0.0266342 0
              CHANNELS 3 Zrotation Xrotation Yrotation
              JOINT Head
              {
                OFFSET 6.69364 2.86102e-005 0
                CHANNELS 3 Zrotation Xrotation Yrotation
                End Site
                {
                  OFFSET 0 0 0
                }
              }
            }
          }
        }
      }
    }
  }
}
MOTION
Frames:	14
Frame Time:	0.0416667
-87.9272 104.259 -135.454 95.2547 -35.7573 98.5343 -175.068 -4.40326 91.8743 -10.4942 25.5956 0.83749 33.4406 -14.4494 -3.73801 23.8277 -5.78801 0.369974 161.785 53.2706 104.433 -98.7121 4.22788 -2.25486 48.5415 0.848303 0.96077 36.5896 0.521417 7.86049 -1.02179 8.09682 -90.2994 10.6758 -2.17263 -0.395481 -0.993338 -2.18796 -0.299436 -23.5402 -1.9533 -1.03039 -3.52757 -1.95331 -1.0304 77.8222 -54.8145 -117.107 27.9219 -6.06809 34.1661 -4.04976 -18.0182 -26.4398 3.02388 0.0740431 5.75483 -100.048 -39.7749 59.7635 -24.8072 0.135486 -1.63314 2.38872 -3.21857 -60.7292 20.3951 1.52408 3.60213 0.914237 1.74759 -1.12934 6.43639 2.00263 1.47026 
-80.7931 108.94 -129.238 96.0879 -33.2099 97.5022 -174.536 -5.30219 92.0634 -8.0432 30.9426 0.242638 28.7866 -18.6549 -6.0038 18.3936 -10.1109 -5.54441 162.511 55.6293 104.747 -94.9242 3.19811 -1.70335 53.804 -0.115325 0.125047 36.5624 0.511981 6.07337 -1.3022 8.07054 -90.124 10.7351 -2.65022 -0.00252701 -0.933183 -2.64779 0.114198 -23.4886 -2.52688 -0.799435 -3.47596 -2.52688 -0.799436 78.9736 -52.8945 -116.238 31.9345 -0.711459 41.4029 -3.80903 -9.40617 -26.7433 0.743428 -0.0548722 3.14307 -96.5872 -37.304 64.3552 -22.5132 0.151801 -4.99787 5.38379 -2.33921 -74.6938 20.8981 1.51244 3.40324 -0.47892 1.63468 -2.96895 6.78537 2.24149 2.572 
-72.9279 111.127 -122.787 96.3457 -33.0782 96.3947 -174.041 -1.96661 90.6692 -8.4029 26.8923 -0.209474 38.2577 -14.9522 -5.17626 26.3484 -3.15611 2.49585 168.57 53.6301 102.024 -86.6505 -0.276418 -1.30425 58.8028 -1.1077 -0.617098 34.3963 0.339644 -0.479321 -1.27923 8.0151 -90.0341 10.8478 -2.56281 0.17165 -0.820657 -2.55278 0.284349 -23.3753 -2.49585 -0.607007 -3.3627 -2.49583 -0.60701 80.9148 -50.0133 -114.532 35.7709 1.57676 44.8256 -3.86224 -7.7094 -25.5913 0.131018 -0.0818853 2.24997 -95.6081 -36.6241 65.7292 -19.8853 -4.20915 -6.61732 7.33384 -0.699458 -88.7364 18.2723 1.61226 4.94238 0.701033 1.36675 -2.90882 6.10263 2.05226 3.43523 
-64.7646 109.921 -116.056 95.1063 -31.436 94.3856 -173.442 0.917255 88.9619 -7.44614 16.0281 -1.27123 43.3946 -12.5083 -4.06573 34.5414 6.44134 4.32275 171.903 49.9402 98.9288 -74.0686 2.08335 0.281203 58.8847 -0.882918 -0.430201 42.2141 0.845836 0.393727 -1.45205 7.8406 -89.9456 11.2006 -2.86464 0.389543 -0.467329 -2.84471 0.515333 -23.0275 -2.84915 -0.490128 -3.01484 -2.84916 -0.490134 81.4373 -49.0212 -114.133 36.5656 1.22323 46.3949 -4.97185 -10.1229 -25.4303 2.35081 0.0399166 3.14456 -95.4665 -36.7635 66.0261 -17.2821 -8.3473 -8.1013 6.97462 -4.65009 -100.933 22.5165 2.27895 6.33601 2.27942 1.10657 -3.3189 4.1787 1.86629 3.80102 
-56.8584 104.476 -109.8 96.9828 -30.9365 94.8096 -172.885 -0.93829 88.3169 -6.45004 12.3807 -1.96963 40.7585 -12.8545 -3.4588 42.1126 15.5109 5.05938 175.12 44.089 96.7576 -59.5395 4.52803 1.62527 63.1354 -1.82838 -1.00627 47.1739 1.35937 2.23444 -1.40714 7.93276 -89.9138 11.0163 -2.76117 0.436047 -0.651841 -2.73931 0.557236 -23.2103 -2.76448 -0.414613 -3.19766 -2.76448 -0.414613 80.9043 -50.0117 -114.548 34.2266 0.405119 47.6956 -5.27148 -11.5821 -26.4058 4.15421 0.167122 4.10489 -95.6651 -36.8087 65.7069 -16.0549 -11.924 -10.067 6.19535 -3.12255 -111.228 26.3435 3.55746 9.7765 2.32573 0.799489 -2.71022 4.35918 1.41587 2.95511 
-49.2172 96.5407 -103.585 98.7089 -30.0343 95.6767 -173.195 1.35649 87.5759 -28.7633 16.8585 -0.92418 57.4141 4.89288 12.6343 54.988 23.5175 -15.526 179.253 39.6313 94.8643 -43.7643 6.50061 0.746842 66.7225 -2.58821 -1.41233 48.6096 1.45194 2.07783 -1.35324 8.06254 -89.9209 10.7558 -2.65856 0.402746 -0.912551 -2.63825 0.519444 -23.4693 -2.65658 -0.415447 -3.45664 -2.6566 -0.415463 78.6863 -53.5061 -116.407 29.1531 -0.403831 47.3484 -4.70166 -11.0257 -25.7242 1.99923 0.0298279 4.19739 -96.5937 -37.1542 64.2817 -16.807 -13.5679 -11.011 6.15622 -3.06557 -119.094 29.9724 4.22231 10.4252 3.7325 0.0953874 -2.65035 4.38276 0.69987 2.24866 
-40.804 90.4314 -96.6729 97.2741 -29.9019 91.9314 -173.194 -3.97228 84.4649 -34.3334 13.2171 -0.684232 66.0714 21.0732 25.3423 56.2995 26.7204 -8.97537 -176.874 37.1 90.6506 -27.4078 7.88253 -2.28073 69.1028 -3.39093 -1.79197 49.4748 2.4354 9.75403 -1.24339 7.95201 -89.5768 10.9804 -2.27932 1.05835 -0.689074 -2.23053 1.15767 -23.2397 -2.49195 0.324022 -3.22701 -2.49196 0.324022 79.1828 -57.1908 -114.325 25.2026 -1.37116 38.4283 -3.40455 -13.221 -21.8962 -6.05968 -0.747194 8.56609 -99.6533 -40.1994 60.5828 -16.695 -7.95871 -9.4266 10.2501 -5.62901 -119.139 28.8324 3.56196 8.64839 8.50663 -1.44699 -5.13606 1.222 -0.217267 2.75666 
-30.4918 88.6343 -88.6119 96.1194 -30.5063 90.1391 -171.852 -9.79575 86.4015 -36.2445 18.817 -1.10058 62.6002 14.3401 22.236 61.9779 34.3375 -3.41855 -176.324 33.6958 89.0948 -21.1766 3.37202 -3.34202 69.4706 -3.10208 -1.61609 52.4452 2.46449 6.89335 -1.1798 7.68297 -89.6237 11.5145 -2.1713 0.969323 -0.155138 -2.12652 1.06397 -22.7042 -2.36218 0.271632 -2.69152 -2.36218 0.271627 80.4979 -57.6338 -112.37 23.9919 -1.46158 27.8688 -2.37665 -10.7946 -22.9979 -9.03905 -1.07421 8.45593 -102.187 -42.1976 57.5078 -23.3982 -0.738072 -1.24199 13.9943 -12.3519 -99.1236 24.9702 2.64025 6.83326 9.53198 -1.96163 -3.58471 -0.526628 -1.06546 2.11623 
-18.6793 88.8032 -80.1652 91.8613 -31.0132 90.493 -172.395 -11.0961 92.1226 -36.5693 24.7138 0.66257 49.5129 -5.64639 3.28179 59.5138 42.8412 17.426 -179.918 35.9408 91.0172 -31.2199 3.73872 0.296296 63.516 -1.39764 -0.735185 51.746 1.69879 1.58438 -1.18428 7.18389 -90.3839 12.5136 -2.53511 -0.462567 0.845133 -2.553 -0.350484 -21.707 -2.27884 -1.20344 -1.69434 -2.27884 -1.20345 79.9162 -58.0071 -113.038 19.9951 -4.76877 18.1628 0.583062 -5.63324 -30.8432 -6.83601 -0.485192 2.84949 -103 -43.0193 56.6413 -30.3059 5.84951 1.35132 2.2876 5.21746 -67.6121 25.6619 2.27366 5.08011 11.9542 -0.258664 1.5524 -3.48731 -0.642105 2.25136 
-9.20397 87.7188 -72.6079 93.0686 -35.6406 90.6798 -175.809 -3.95873 90.2204 -53.4392 20.5679 1.23512 31.7549 -18.1972 -7.88306 18.4787 -13.582 5.58548 179.085 37.3762 93.8037 -48.5996 2.50927 -0.29948 66.9098 -2.05704 -1.08991 36.4971 0.511325 7.41901 -0.843608 7.46905 -90.4967 11.9298 -1.91138 -0.78455 0.260037 -1.94407 -0.699639 -22.2816 -1.58722 -1.3228 -2.26892 -1.58724 -1.32281 75.5242 -58.7157 -118.693 13.9019 -10.9657 5.10725 0.202847 -7.05384 -40.5338 -13.1378 -0.85949 2.48277 -106.864 -42.8193 50.7251 -29.9079 12.7896 0.272507 -2.78585 2.28132 -25.9086 28.6657 2.43213 4.69701 14.6097 1.34278 3.73534 -3.31581 0.313245 1.13222 
-0.417952 88.4987 -65.4393 93.9975 -41.6264 93.1424 -172.748 15.1291 93.9843 -77.0585 18.4007 -0.367712 36.5129 -15.6084 -2.67037 27.6222 -2.35931 7.24806 -177.869 31.0176 99.137 -52.0282 4.87494 -3.20441 75.335 -5.43774 -2.61264 26.4609 -1.09632 11.6808 -0.0560708 7.83144 -90.6022 11.2083 -0.391731 -1.16215 -0.463072 -0.442499 -1.14379 -22.9943 -0.0243809 -1.22615 -2.98168 -0.0243813 -1.22615 76.2426 -54.4009 -119.478 13.531 -11.7979 -7.44149 -5.03183 -6.47966 -55.3224 -15.2241 -0.989848 2.5441 -107.435 -43.3587 50.1617 -32.314 10.1982 9.06285 -3.0804 2.61444 -15.5359 21.501 2.04386 5.6266 16.6715 1.39606 3.78199 -3.08457 0.286525 1.37059 
7.96666 93.024 -57.5955 91.7672 -40.8315 87.7508 -171.477 34.6741 90.3829 -83.6598 18.0521 -0.747224 39.2946 -14.5033 -1.75627 30.6828 1.63537 6.16086 -178.446 19.5414 95.8079 -42.7647 3.69364 -4.06822 74.5264 -5.6466 -2.82574 32.1387 -0.205597 12.7397 0.386139 7.67313 -90.1686 11.5319 0.689318 -0.407223 -0.138888 0.670726 -0.437174 -22.6757 0.779829 -0.181221 -2.66301 0.779825 -0.181225 79.2053 -51.3437 -116.513 12.6552 -8.41745 -13.3642 -8.42537 -3.43927 -71.2436 -18.5334 -0.964554 1.00119 -104.794 -42.6682 53.7543 -34.3706 8.09915 18.5652 -1.05286 3.71442 -19.3779 16.0113 1.33357 4.45042 13.2326 -0.827546 4.42252 -2.71961 -1.92751 1.13282 
17.0688 100.211 -49.9029 94.8886 -41.0193 85.0489 -167.986 41.2242 85.0551 -76.5039 20.0086 -2.56456 43.8922 -11.7859 1.48769 34.1227 5.93843 4.81617 179.994 5.75746 88.5751 -30.5095 -5.90819 -5.54095 54.1115 1.09087 1.13998 36.3195 0.490967 8.16977 0.831084 7.74284 -89.6097 11.3865 1.83581 0.594237 -0.283226 1.86017 0.512838 -22.8254 1.57236 1.1186 -2.81275 1.57233 1.11859 82.5659 -48.461 -112.643 14.2142 -5.16133 -12.7252 -11.9833 -0.399304 -80.9446 -17.5214 -1.06535 2.12286 -100.969 -41.3773 59.0296 -36.2442 7.93696 24.7414 -0.771958 4.66658 -21.1451 15.4589 1.21377 3.93448 7.75159 -3.59709 4.22714 -1.39928 -4.39006 0.206011 
26.4886 106.209 -43.4546 96.4088 -42.7044 86.2242 -167.166 43.7472 83.5802 -65.8085 16.8755 -3.77614 46.78 -10.4993 1.35789 37.9634 10.3932 2.36182 179.234 0.846369 87.2379 -24.7465 -8.76067 -4.9902 33.5572 6.36335 7.07355 12.1119 -2.76 8.06504 1.00943 7.65833 -89.6809 11.5547 2.15749 0.413946 -0.114448 2.17365 0.318534 -22.6612 1.93333 1.04345 -2.64852 1.93331 1.04343 86.0584 -44.3176 -108.644 16.6523 -7.20644 -13.2562 -11.241 2.16309 -88.7821 -17.4531 -1.39104 4.26997 -97.9647 -40.0575 63.2334 -40.3693 4.34645 31.9459 -0.254159 0.389069 -23.2654 14.7474 0.905492 2.24007 5.67835 -4.16237 5.70464 0.314808 -5.19342 -1.18676 
